<svg width="520" height="319" viewBox="0 0 520 319" fill="none" xmlns="http://www.w3.org/2000/svg" role="img" aria-labelledby="title desc">
  <title id="title">Terry's Stats</title>
  <desc id="desc">GitHub statistics for 2218084076</desc>
  <defs>
    <filter id="logoShadow" x="-35%" y="-35%" width="170%" height="170%">
      <feDropShadow dx="0" dy="2" stdDeviation="2" flood-color="#111827" flood-opacity="0.45"/>
    </filter>
  </defs>
  <style>
    .card { fill: #373f51; stroke: #e6edf3; stroke-width: 1; }
    .title { fill: #e07a5f; font: 700 18px 'Segoe UI', Ubuntu, Sans-Serif; }
    .label { fill: #f4d6b1; font: 700 14px 'Segoe UI', Ubuntu, Sans-Serif; }
    .value { fill: #f4d6b1; font: 700 14px 'Segoe UI', Ubuntu, Sans-Serif; }
    .icon { stroke: #f2cc8f; stroke-width: 1.8; stroke-linecap: round; stroke-linejoin: round; fill: none; }
    .icon-fill { fill: #f2cc8f; stroke: none; }
    .mark { fill: #222936; stroke: none; }
    .ring { stroke: #e07a5f; stroke-width: 6; fill: #f4d6b1; }
  </style>
  <rect class="card" x="0.5" y="0.5" width="519" height="318" rx="4.5"/>
  <text x="28" y="34" class="title">Terry's Stats</text>
  <circle class="ring" cx="430" cy="126" r="40"/>
  <g transform="translate(407 113) scale(1.5)" class="mark" filter="url(#logoShadow)">
    <path d="M16 1.5C7.7 1.5 1 8.2 1 16.5c0 6.6 4.3 12.2 10.2 14.2.7.1 1-.3 1-.7v-2.6c-4.2.9-5.1-1.8-5.1-1.8-.7-1.7-1.7-2.2-1.7-2.2-1.4-1 .1-1 .1-1 1.5.1 2.3 1.6 2.3 1.6 1.4 2.3 3.6 1.6 4.4 1.3.1-1 .5-1.6.9-2-3.3-.4-6.8-1.7-6.8-7.4 0-1.6.6-3 1.5-4-.2-.4-.7-2 .1-4 0 0 1.3-.4 4.1 1.5 1.2-.3 2.5-.5 3.9-.5s2.7.2 3.9.5c2.9-1.9 4.1-1.5 4.1-1.5.8 2 .3 3.6.1 4 .9 1 1.5 2.3 1.5 4 0 5.8-3.5 7-6.8 7.4.5.5 1 1.4 1 2.8V30c0 .4.3.8 1 .7C26.7 28.7 31 23.1 31 16.5 31 8.2 24.3 1.5 16 1.5z"/>
  </g>
  <g class="icon" transform="translate(32 52)"><path d="M3 5.5h5l1.5 2H17v9H3z"/><path d="M3 8h14"/></g><text x="58" y="66" class="label">Repositories:</text><text x="330" y="66" class="value">165</text><g class="icon" transform="translate(32 77)"><rect x="4" y="8" width="12" height="8" rx="1.5"/><path d="M7 8V6a3 3 0 0 1 6 0v2"/></g><text x="58" y="91" class="label">Private Repositories:</text><text x="330" y="91" class="value">43</text><g class="icon" transform="translate(32 102)"><path d="M10 2.8l2.1 4.3 4.7.7-3.4 3.3.8 4.7L10 13.6l-4.2 2.2.8-4.7-3.4-3.3 4.7-.7z"/></g><text x="58" y="116" class="label">Total Stars Earned:</text><text x="330" y="116" class="value">18</text><g class="icon" transform="translate(32 127)"><circle cx="10" cy="10" r="3.2"/><path d="M2.5 10h4.3M13.2 10h4.3"/></g><text x="58" y="141" class="label">Total Commits:</text><text x="330" y="141" class="value">895</text><g class="icon" transform="translate(32 152)"><circle cx="5" cy="4" r="2"/><circle cx="5" cy="16" r="2"/><circle cx="15" cy="16" r="2"/><path d="M5 6v8M9 4h2a4 4 0 0 1 4 4v6"/></g><text x="58" y="166" class="label">Total PRs:</text><text x="330" y="166" class="value">33</text><g class="icon" transform="translate(32 177)"><path d="M4 16L16 4"/><circle cx="5.2" cy="5.2" r="1.8"/><circle cx="14.8" cy="14.8" r="1.8"/></g><text x="58" y="191" class="label">Merged PRs Percentage:</text><text x="330" y="191" class="value">84.85 %</text><g class="icon" transform="translate(32 202)"><circle cx="10" cy="10" r="7"/><path d="M10 5.8v5.2"/><path d="M10 14.4h.01"/></g><text x="58" y="216" class="label">Total Issues:</text><text x="330" y="216" class="value">6</text><g class="icon" transform="translate(32 227)"><path d="M2.5 10s3-5 7.5-5 7.5 5 7.5 5-3 5-7.5 5-7.5-5-7.5-5z"/><circle cx="10" cy="10" r="2.4"/></g><text x="58" y="241" class="label">PRs Reviewed:</text><text x="330" y="241" class="value">4</text><g class="icon" transform="translate(32 252)"><rect x="4" y="4" width="12" height="9" rx="1.5"/><path d="M7 16h6M10 13v3"/></g><text x="58" y="266" class="label">Contributed to (last year):</text><text x="330" y="266" class="value">21</text>
</svg>
