<svg width="520" height="319" viewBox="0 0 520 319" fill="none" xmlns="http://www.w3.org/2000/svg" role="img" aria-labelledby="title desc">
  <title id="title">Terry's Stats</title>
  <desc id="desc">GitHub statistics for 2218084076</desc>
  <style>
    .card { fill: #373f51; stroke: #e6edf3; stroke-width: 1; }
    .title { fill: #e07a5f; font: 700 18px 'Segoe UI', Ubuntu, Sans-Serif; }
    .label { fill: #f4d6b1; font: 700 14px 'Segoe UI', Ubuntu, Sans-Serif; }
    .value { fill: #f4d6b1; font: 700 14px 'Segoe UI', Ubuntu, Sans-Serif; }
    .icon { fill: #f2cc8f; font: 700 12px 'Segoe UI', Ubuntu, Sans-Serif; }
    .mark { fill: #222936; }
    .ring { stroke: #e07a5f; stroke-width: 6; fill: #f4d6b1; }
  </style>
  <rect class="card" x="0.5" y="0.5" width="519" height="318" rx="4.5"/>
  <text x="28" y="34" class="title">Terry's Stats</text>
  <circle class="ring" cx="430" cy="126" r="40"/>
  <text x="405" y="137" class="mark" style="font: 800 30px 'Segoe UI', Ubuntu, Sans-Serif;">GH</text>
  <text x="34" y="66" class="icon">*</text><text x="58" y="66" class="label">Repositories:</text><text x="330" y="66" class="value">163</text><text x="34" y="91" class="icon">*</text><text x="58" y="91" class="label">Private Repositories:</text><text x="330" y="91" class="value">43</text><text x="34" y="116" class="icon">*</text><text x="58" y="116" class="label">Total Stars Earned:</text><text x="330" y="116" class="value">17</text><text x="34" y="141" class="icon">*</text><text x="58" y="141" class="label">Total Commits:</text><text x="330" y="141" class="value">888</text><text x="34" y="166" class="icon">*</text><text x="58" y="166" class="label">Total PRs:</text><text x="330" y="166" class="value">33</text><text x="34" y="191" class="icon">*</text><text x="58" y="191" class="label">Merged PRs Percentage:</text><text x="330" y="191" class="value">84.85 %</text><text x="34" y="216" class="icon">*</text><text x="58" y="216" class="label">Total Issues:</text><text x="330" y="216" class="value">6</text><text x="34" y="241" class="icon">*</text><text x="58" y="241" class="label">PRs Reviewed:</text><text x="330" y="241" class="value">0</text><text x="34" y="266" class="icon">*</text><text x="58" y="266" class="label">Contributed to (last year):</text><text x="330" y="266" class="value">20</text>
</svg>
